<svg width="38" height="38" viewBox="0 0 38 38" fill="none" xmlns="http://www.w3.org/2000/svg">
<rect x="0.407315" y="0.407315" width="36.8182" height="36.8182" rx="18.4091" fill="#0288D1"/>
<rect x="0.407315" y="0.407315" width="36.8182" height="36.8182" rx="18.4091" stroke="white" stroke-width="0.818182"/>
<path d="M22.9844 19.9818V22.4818C22.9844 25.8151 21.651 27.1484 18.3177 27.1484H15.151C11.8177 27.1484 10.4844 25.8151 10.4844 22.4818V19.3151C10.4844 15.9818 11.8177 14.6484 15.151 14.6484H17.651" stroke="white" stroke-width="1.5" stroke-linecap="round" stroke-linejoin="round"/>
<path d="M22.9857 19.9818H20.319C18.319 19.9818 17.6523 19.3151 17.6523 17.3151V14.6484L22.9857 19.9818Z" stroke="white" stroke-width="1.5" stroke-linecap="round" stroke-linejoin="round"/>
<path d="M18.4844 10.4844H21.8177" stroke="white" stroke-width="1.5" stroke-linecap="round" stroke-linejoin="round"/>
<path d="M14.6484 12.9844C14.6484 11.601 15.7651 10.4844 17.1484 10.4844H19.3318" stroke="white" stroke-width="1.5" stroke-linecap="round" stroke-linejoin="round"/>
<path d="M27.1503 15.4844V20.6427C27.1503 21.9344 26.1003 22.9844 24.8086 22.9844" stroke="white" stroke-width="1.5" stroke-linecap="round" stroke-linejoin="round"/>
<path d="M27.1484 15.4844H24.6484C22.7734 15.4844 22.1484 14.8594 22.1484 12.9844V10.4844L27.1484 15.4844Z" stroke="white" stroke-width="1.5" stroke-linecap="round" stroke-linejoin="round"/>
</svg>
