<svg width="32" height="32" viewBox="0 0 32 32" fill="none" xmlns="http://www.w3.org/2000/svg">
<path d="M0 16C0 7.16344 7.16344 0 16 0C24.8366 0 32 7.16344 32 16C32 24.8366 24.8366 32 16 32C7.16344 32 0 24.8366 0 16Z" fill="black" fill-opacity="0.05"/>
<path fill-rule="evenodd" clip-rule="evenodd" d="M24 16C24 18.1217 23.1571 20.1566 21.6569 21.6569C20.1566 23.1571 18.1217 24 16 24C13.8783 24 11.8434 23.1571 10.3431 21.6569C8.84285 20.1566 8 18.1217 8 16C8 13.8783 8.84285 11.8434 10.3431 10.3431C11.8434 8.84285 13.8783 8 16 8C18.1217 8 20.1566 8.84285 21.6569 10.3431C23.1571 11.8434 24 13.8783 24 16ZM14.94 12.94C14.8703 13.0097 14.7876 13.0649 14.6966 13.1026C14.6056 13.1403 14.508 13.1597 14.4095 13.1597C14.311 13.1597 14.2134 13.1403 14.1224 13.1026C14.0314 13.0649 13.9487 13.0097 13.879 12.94C13.8093 12.8703 13.7541 12.7876 13.7164 12.6966C13.6787 12.6056 13.6593 12.508 13.6593 12.4095C13.6593 12.311 13.6787 12.2134 13.7164 12.1224C13.7541 12.0314 13.8093 11.9487 13.879 11.879C14.2052 11.5527 14.6022 11.3061 15.0393 11.1583C15.4763 11.0105 15.9415 10.9654 16.3988 11.0267C16.8561 11.0879 17.293 11.2538 17.6758 11.5115C18.0585 11.7691 18.3766 12.1115 18.6055 12.5121C18.8343 12.9127 18.9677 13.3607 18.9952 13.8212C19.0227 14.2817 18.9436 14.7424 18.7641 15.1674C18.5846 15.5924 18.3095 15.9703 17.9602 16.2716C17.6108 16.573 17.1967 16.7897 16.75 16.905V17.25C16.75 17.4489 16.671 17.6397 16.5303 17.7803C16.3897 17.921 16.1989 18 16 18C15.8011 18 15.6103 17.921 15.4697 17.7803C15.329 17.6397 15.25 17.4489 15.25 17.25V16.75C15.25 16.03 15.82 15.578 16.331 15.463C16.558 15.4119 16.7701 15.3087 16.9503 15.1615C17.1306 15.0144 17.2742 14.8273 17.3696 14.6151C17.4651 14.4029 17.5099 14.1713 17.5005 13.9388C17.4911 13.7063 17.4277 13.4792 17.3153 13.2754C17.203 13.0716 17.0447 12.8967 16.8531 12.7646C16.6616 12.6325 16.4419 12.5468 16.2114 12.5143C15.981 12.4818 15.7462 12.5033 15.5255 12.5772C15.3048 12.6511 15.1044 12.7753 14.94 12.94ZM16 21C16.2652 21 16.5196 20.8946 16.7071 20.7071C16.8946 20.5196 17 20.2652 17 20C17 19.7348 16.8946 19.4804 16.7071 19.2929C16.5196 19.1054 16.2652 19 16 19C15.7348 19 15.4804 19.1054 15.2929 19.2929C15.1054 19.4804 15 19.7348 15 20C15 20.2652 15.1054 20.5196 15.2929 20.7071C15.4804 20.8946 15.7348 21 16 21Z" fill="black"/>
</svg>
