<svg width="38" height="38" viewBox="0 0 38 38" fill="none" xmlns="http://www.w3.org/2000/svg">
<rect x="0.820312" y="0.818115" width="36" height="36" rx="18" fill="#2E7D32"/>
<rect x="0.411222" y="0.409024" width="36.8182" height="36.8182" rx="18.4091" stroke="white" stroke-opacity="0.36" stroke-width="0.818182"/>
<path d="M27.151 19.6515V16.3182C27.151 12.1515 25.4844 10.4849 21.3177 10.4849H16.3177C12.151 10.4849 10.4844 12.1515 10.4844 16.3182V21.3182C10.4844 25.4849 12.151 27.1515 16.3177 27.1515H19.651" stroke="white" stroke-width="1.25" stroke-linecap="round" stroke-linejoin="round"/>
<path d="M14.9297 20.8932L16.913 18.3182C17.1964 17.9515 17.7214 17.8848 18.088 18.1682L19.613 19.3682C19.9797 19.6515 20.5047 19.5848 20.788 19.2265L22.713 16.7432" stroke="white" stroke-width="1.25" stroke-linecap="round" stroke-linejoin="round"/>
<path d="M25.0501 22.0013L25.2834 22.4763C25.4001 22.7096 25.6917 22.9263 25.9501 22.9763L26.2667 23.0263C27.2167 23.1846 27.4417 23.8846 26.7584 24.5763L26.4667 24.868C26.2751 25.068 26.1668 25.4513 26.2251 25.718L26.2667 25.893C26.5251 27.043 25.9167 27.4846 24.9167 26.8846L24.7001 26.7596C24.4417 26.6096 24.0251 26.6096 23.7667 26.7596L23.5501 26.8846C22.5417 27.493 21.9334 27.043 22.2001 25.893L22.2417 25.718C22.3001 25.4513 22.1917 25.068 22.0001 24.868L21.7084 24.5763C21.0251 23.8846 21.2501 23.1846 22.2001 23.0263L22.5167 22.9763C22.7667 22.9347 23.0667 22.7096 23.1834 22.4763L23.4167 22.0013C23.8667 21.093 24.6001 21.093 25.0501 22.0013Z" stroke="white" stroke-width="1.25" stroke-linecap="round" stroke-linejoin="round"/>
</svg>
