<svg width="58" height="24" viewBox="0 0 58 24" fill="none" xmlns="http://www.w3.org/2000/svg">
<g clip-path="url(#clip0_3950_44784)">
<path fill-rule="evenodd" clip-rule="evenodd" d="M57.333 12.3273C57.333 8.25024 55.3581 5.0332 51.5837 5.0332C47.7933 5.0332 45.5 8.25024 45.5 12.2954C45.5 17.0891 48.2074 19.5099 52.0933 19.5099C53.9885 19.5099 55.4218 19.0799 56.5048 18.4747V15.2895C55.4218 15.831 54.1796 16.1654 52.603 16.1654C51.0581 16.1654 49.6885 15.6239 49.5133 13.7447H57.3011C57.3011 13.5376 57.333 12.7095 57.333 12.3273ZM49.4656 10.8143C49.4656 9.01468 50.5644 8.26617 51.5678 8.26617C52.5393 8.26617 53.5744 9.01468 53.5744 10.8143H49.4656Z" fill="#533AFD"/>
<path fill-rule="evenodd" clip-rule="evenodd" d="M39.3518 5.0332C37.791 5.0332 36.7877 5.7658 36.2303 6.27543L36.0232 5.28802H32.5195V23.8576L36.501 23.0136L36.5169 18.5065C37.0903 18.9206 37.9343 19.5099 39.3358 19.5099C42.1866 19.5099 44.7825 17.2165 44.7825 12.168C44.7666 7.5495 42.1388 5.0332 39.3518 5.0332ZM38.3962 16.0062C37.4566 16.0062 36.8992 15.6717 36.5169 15.2576L36.501 9.34913C36.9151 8.88728 37.4884 8.56876 38.3962 8.56876C39.8455 8.56876 40.8488 10.1932 40.8488 12.2795C40.8488 14.4136 39.8614 16.0062 38.3962 16.0062Z" fill="#533AFD"/>
<path fill-rule="evenodd" clip-rule="evenodd" d="M27.043 4.09296L31.0404 3.23296V0L27.043 0.844074V4.09296Z" fill="#533AFD"/>
<path d="M31.0404 5.30273H27.043V19.2379H31.0404V5.30273Z" fill="#533AFD"/>
<path fill-rule="evenodd" clip-rule="evenodd" d="M22.7573 6.48181L22.5025 5.30329H19.0625V19.2385H23.044V9.7944C23.9836 8.56811 25.5762 8.79107 26.0699 8.96625V5.30329C25.5603 5.11218 23.6969 4.76181 22.7573 6.48181Z" fill="#533AFD"/>
<path fill-rule="evenodd" clip-rule="evenodd" d="M14.7964 1.84766L10.9105 2.6758L10.8945 15.4325C10.8945 17.7895 12.6623 19.5254 15.0193 19.5254C16.3253 19.5254 17.2808 19.2865 17.8064 18.9999V15.7669C17.2968 15.9739 14.7805 16.7065 14.7805 14.3495V8.6958H17.8064V5.30358H14.7805L14.7964 1.84766Z" fill="#533AFD"/>
<path fill-rule="evenodd" clip-rule="evenodd" d="M4.02926 9.34913C4.02926 8.72802 4.53889 8.48913 5.38296 8.48913C6.59333 8.48913 8.12222 8.85543 9.33259 9.50839V5.7658C8.01074 5.24024 6.70481 5.0332 5.38296 5.0332C2.15 5.0332 0 6.72135 0 9.54024C0 13.9358 6.05185 13.2351 6.05185 15.1302C6.05185 15.8628 5.41481 16.1017 4.52296 16.1017C3.20111 16.1017 1.51296 15.5602 0.175185 14.8276V18.618C1.6563 19.255 3.15333 19.5258 4.52296 19.5258C7.83556 19.5258 10.113 17.8854 10.113 15.0347C10.097 10.2888 4.02926 11.1328 4.02926 9.34913Z" fill="#533AFD"/>
</g>
<defs>
<clipPath id="clip0_3950_44784">
<rect width="57.3333" height="23.8889" fill="white"/>
</clipPath>
</defs>
</svg>
